<?xml version="1.0" encoding="UTF-8"?>
<svg id="Layer_2" data-name="Layer 2" xmlns="http://www.w3.org/2000/svg" viewBox="0 0 68.43 102.65">
  <defs>
    <style>
      .cls-1 {
        stroke-width: 0px;
      }
    </style>
  </defs>
  <g id="Layer_2-2" data-name="Layer 2">
    <g id="slrtNL.tif">
      <g>
        <path class="cls-1" d="m29.55,31.86c-.24.32-.44.67-.71.95-7.09,7.1-14.19,14.2-21.29,21.3-1.87,1.87-4.31,2.01-6.11.4-1.68-1.51-1.92-3.98-.54-5.77.28-.37.63-.7.96-1.03,9.24-9.24,18.48-18.49,27.73-27.73.51-.51.99-1.05,1.51-1.56,1.79-1.77,4.42-1.82,6.2-.04,9.91,9.9,19.81,19.82,29.7,29.74,1.9,1.91,1.92,4.53.13,6.27-1.76,1.71-4.31,1.63-6.19-.25-7.13-7.12-14.25-14.24-21.37-21.37-.27-.27-.56-.53-1.04-.98v1.47c0,21.41,0,42.82,0,64.24,0,.76-.02,1.52-.26,2.25-.63,1.85-2.61,3.11-4.49,2.86-2.13-.28-3.65-1.89-3.83-4.06-.04-.43-.02-.87-.02-1.3,0-21.3,0-42.61,0-63.91v-1.27c-.12-.07-.24-.14-.36-.2Z"/>
        <path class="cls-1" d="m34.1,8.6c-9.78,0-19.56,0-29.34,0-2.29,0-3.94-1.09-4.54-2.97C-.64,2.97,1.17.3,4.01.02,4.3,0,4.59,0,4.87,0,24.43,0,43.99,0,63.55,0c2.38,0,4.04,1.07,4.65,2.97.87,2.71-.98,5.38-3.9,5.61-.61.05-1.23.02-1.84.02-9.46,0-18.91,0-28.37,0Z"/>
      </g>
    </g>
  </g>
</svg>