<?xml version="1.0" encoding="UTF-8"?>
<svg id="Layer_2" data-name="Layer 2" xmlns="http://www.w3.org/2000/svg" viewBox="0 0 325.49 513.36">
  <defs>
    <style>
      .cls-1 {
        fill: #020202;
        stroke-width: 0px;
      }
    </style>
  </defs>
  <g id="Layer_2-2" data-name="Layer 2">
    <g>
      <path class="cls-1" d="m297.29,21.36h4.37s.23-.01.63-.05c-1.67.02-3.34.05-5,.05Z"/>
      <path class="cls-1" d="m316.26.31c-5.35-.28-10.73-.37-16.09-.27h-.01c-1.4-.08-2.32-.01-2.32.04-.4-.08-250.54.06-271.46.07-.74,0-1.42.34-1.98.82-.87.75-2.17.67-3.18,1.05C11.85,5.59,5.44,12,1.87,21.37c-.48,1.28-.21,3.04-1.87,3.77v397.9c1.52.38,1.19,1.87,1.55,2.84,5.2,14.1,16.44,22.06,31.46,22.15q9.72.06,9.72,9.82c0,13.27.26,26.56-.11,39.82-.21,7.43,2.42,12.59,10.22,15.69.5-.01,1.19-.02,1.69-.04,7.83-3.59,9.77-9.32,9.58-16.82-.39-14.81-.03-29.63-.2-44.44-.04-3.2.73-4.11,4.05-4.11,54.09.11,108.18.13,162.28-.02,3.92,0,4.58,1.21,4.53,4.77-.2,14.97.16,29.96-.2,44.93-.16,6.55,1.8,11.34,7.61,14.52,1.61.11,3.01.2,4.62.31,6.99-2.57,9.36-7.41,9.22-14.39-.29-15.32-.01-30.65-.16-45.97-.02-1.95.22-3.27,1.22-3.85,1.96,0,3.92-.05,5.89-.05v.06c1.83,0,3.66.01,5.49,0,2-.01,4,.07,5.99-.08,5.71-.44,9.67-4.45,9.91-9.91.25-5.7-3.56-10.77-9.22-11.06-2.78-.15-5.56-.24-8.34-.28-.81-.09-1.67-.13-2.58-.13-24.49-.03-48.98-.02-73.46-.02-5.33,0-10.67-.21-15.99.07-3.36.18-4.18-.96-4.14-4.21.17-14.16.07-28.32.07-42.47,0-117.77.03-235.53-.08-353.3,0-4.12.59-5.64,5.3-5.6,35.87.23,69.94-.77,105.87.09.14,0,9.69,0,15.5,0,1.66,0,3.33-.03,5-.05.6-.01,1.2-.01,1.8-.01v.06c1.83,0,3.66,0,5.49,0,2-.01,4,.07,5.99-.08,5.71-.44,9.67-4.45,9.91-9.91.25-5.7-3.56-10.77-9.22-11.06Zm-167.05,224.23c0,65.62-.04,131.24.1,196.86.01,4.33-.91,5.53-5.41,5.5-36.14-.21-72.28-.11-108.42-.13-10.5,0-14.23-3.69-14.23-14.03-.01-125.91-.01-251.82,0-377.73,0-9.67,3.95-13.61,13.64-13.61,36.31-.01,72.61.07,108.92-.11,4.3-.02,5.53.87,5.52,5.4-.17,65.95-.12,131.9-.12,197.85Z"/>
      <path class="cls-1" d="m213.12,224.31c0,3.66.17,7.34-.04,10.99-.33,5.76-4.33,9.68-9.83,9.95-5.74.28-10.81-3.48-11.1-9.16-.42-7.97-.41-15.99-.01-23.96.29-5.67,5.34-9.46,11.07-9.2,5.52.25,9.55,4.16,9.87,9.9.21,3.82.04,7.66.04,11.49Z"/>
      <path class="cls-1" d="m106.78,223.86c0-3.66-.17-7.33.04-10.99.32-5.72,4.36-9.68,9.84-9.96,5.7-.29,10.82,3.5,11.11,9.15.42,7.97.41,15.99,0,23.96-.29,5.67-5.36,9.47-11.06,9.22-5.46-.24-9.47-4.2-9.9-9.91-.15-1.99-.07-3.99-.08-5.99-.01-1.83,0-3.66,0-5.49.02,0,.04,0,.06,0Z"/>
    </g>
  </g>
</svg>