<?xml version="1.0" encoding="UTF-8"?>
<svg id="Layer_2" data-name="Layer 2" xmlns="http://www.w3.org/2000/svg" viewBox="0 0 213.19 511.86">
  <defs>
    <style>
      .cls-1 {
        fill: #020202;
        stroke-width: 0px;
      }
    </style>
  </defs>
  <g id="Layer_2-2" data-name="Layer 2">
    <g>
      <path class="cls-1" d="m213.19,485.59V26.93c0-.62-.12-1.24-.35-1.81-1.01-2.52-1.94-5.09-3.14-7.52-4.71-9.64-12.97-14.63-22.85-17.42-.43-.12-.88-.18-1.33-.18H30.74c-2.58,0-12.76,3.85-14.29,4.43-.13.05-.26.1-.39.16-1.66.78-3.22,1.75-4.65,2.9-1.25,1.02-2.49,2.12-3.18,2.82C3.48,15.13.67,21.59.26,28.42c-.17,2.8-.26,5.54-.26,7.79,0,146.25,0,292.5,0,438.75,0,20.22,5.93,28.89,24.7,36.15,0,0,0,0,0,0,.85.35,1.68.75,2.6.75h158.15c.49,0,.99-.07,1.46-.22,6.79-2.13,13.15-4.9,18.13-10.39,3.54-3.9,5.09-8.82,7.52-13.27.4-.74.63-1.55.63-2.39Zm-21.24-10c0,11.53-3.43,15.03-14.77,15.03-46.82,0-93.63,0-140.45,0-12.48,0-15.49-3.04-15.49-15.69,0-92.63.03-185.27-.09-277.9,0-4.02.74-5.21,5.03-5.19,43.98.19,87.97.12,131.95.1,7.64,0,12.29-4.15,12.27-10.71-.02-5.56-3.82-9.92-9.41-10.35-3.81-.29-7.66-.16-11.49-.17-41.15,0-82.3-.06-123.45.1-3.94.01-4.91-1-4.9-4.91.15-43.82.09-87.63.1-131.45,0-9.32,3.93-13.18,13.48-13.19,47.82-.01,95.63-.01,143.45,0,10,0,13.77,3.85,13.77,13.99.01,73.64,0,147.28,0,220.92,0,73.14,0,146.28,0,219.42Z"/>
      <path class="cls-1" d="m63.62,235.07c0,3.48.2,6.98-.05,10.45-.46,6.25-4.76,10.43-10.47,10.54-5.89.11-10.56-4.2-10.82-10.66-.29-7.12-.29-14.27.01-21.39.26-6.17,4.81-10.47,10.44-10.59,5.75-.12,10.43,4.36,10.86,10.71.25,3.63.04,7.3.04,10.95Z"/>
      <path class="cls-1" d="m42.19,128.08c0-3.5-.18-7.01.04-10.49.42-6.54,4.8-10.73,10.85-10.66,5.8.07,10.21,4.18,10.48,10.49.3,7.15.32,14.33-.01,21.48-.31,6.5-4.99,10.6-11.05,10.42-5.73-.18-9.89-4.42-10.27-10.74-.21-3.48-.04-6.99-.04-10.49Z"/>
    </g>
  </g>
</svg>