<?xml version="1.0" encoding="utf-8"?>
<!-- Generator: Adobe Illustrator 28.0.0, SVG Export Plug-In . SVG Version: 6.00 Build 0)  -->
<svg version="1.1" id="Layer_2_00000002343111986292237100000015647118971227970222_"
	 xmlns="http://www.w3.org/2000/svg" xmlns:xlink="http://www.w3.org/1999/xlink" x="0px" y="0px" viewBox="0 0 512 512"
	 style="enable-background:new 0 0 512 512;" xml:space="preserve">
<style type="text/css">
	.st0{fill:none;}
	.st1{fill:#FCFCFC;}
	.st2{fill:#020202;}
</style>
<line class="st0" x1="0" y1="512" x2="-8" y2="-0.3"/>
<path class="st1" d="M511.9,26.1c-1.2-2.8-2.2-5.7-3.5-8.4c-4.8-9.9-13.3-14.8-23.5-17.6c8.2,0,16.3,0.1,24.5-0.1
	c2.2,0,2.6,0.4,2.6,2.6C511.8,10.4,511.9,18.2,511.9,26.1z"/>
<path class="st1" d="M484.9,511.9c7.1-2.2,13.7-4.9,18.8-10.6c3.8-4.2,5.3-9.7,8.1-14.4c0,7.5-0.1,15,0.1,22.5
	c0,2.2-0.4,2.6-2.6,2.6C501.3,511.8,493.1,511.9,484.9,511.9z"/>
<path class="st1" d="M25.1,0.1c-0.7,1.7-2.5,1.4-3.8,1.9C11.9,5.6,5.5,12,2,21.3c-0.5,1.3-0.2,3-1.9,3.8c0-7.5,0.1-15-0.1-22.5
	C0,0.4,0.4,0,2.6,0C10.1,0.2,17.6,0.1,25.1,0.1z"/>
<g>
	<path class="st2" d="M512.2,485.4V26.8c0-0.6-0.1-1.2-0.4-1.8c-1-2.5-1.9-5.1-3.1-7.5c-4.7-9.6-13-14.6-22.8-17.4
		c-0.4-0.1-0.9-0.2-1.3-0.2H329.8c-2.6,0-12.8,3.8-14.3,4.4c-0.1,0-0.3,0.1-0.4,0.1c-1.7,0.8-3.2,1.7-4.6,2.9
		c-1.3,1-2.5,2.1-3.2,2.8c-4.7,4.8-7.6,11.3-8,18.1c-0.2,2.8-0.3,5.5-0.3,7.8c0,146.2,0,292.5,0,438.7c0,20.2,5.9,28.9,24.7,36.2
		l0,0c0.8,0.4,1.7,0.8,2.6,0.8h158.1c0.5,0,1-0.1,1.5-0.2c6.8-2.1,13.1-4.9,18.1-10.4c3.5-3.9,5.1-8.8,7.5-13.3
		C512,487.1,512.2,486.2,512.2,485.4z M491,475.4c0,11.5-3.4,15-14.8,15c-46.8,0-93.6,0-140.4,0c-12.5,0-15.5-3-15.5-15.7
		c0-92.6,0-185.3-0.1-277.9c0-4,0.7-5.2,5-5.2c44,0.2,88,0.1,132,0.1c7.6,0,12.3-4.1,12.3-10.7c0-5.6-3.8-9.9-9.4-10.4
		c-3.8-0.3-7.7-0.2-11.5-0.2c-41.2,0-82.3-0.1-123.5,0.1c-3.9,0-4.9-1-4.9-4.9c0.1-43.8,0.1-87.6,0.1-131.5
		c0-9.3,3.9-13.2,13.5-13.2c47.8,0,95.6,0,143.4,0c10,0,13.8,3.9,13.8,14c0,73.6,0,147.3,0,220.9C491,329.1,491,402.3,491,475.4z"/>
	<path class="st2" d="M362.7,234.9c0,3.5,0.2,7-0.1,10.4c-0.5,6.3-4.8,10.4-10.5,10.5c-5.9,0.1-10.6-4.2-10.8-10.7
		c-0.3-7.1-0.3-14.3,0-21.4c0.3-6.2,4.8-10.5,10.4-10.6c5.8-0.1,10.4,4.4,10.9,10.7C362.9,227.6,362.7,231.2,362.7,234.9z"/>
	<path class="st2" d="M341.2,127.9c0-3.5-0.2-7,0-10.5c0.4-6.5,4.8-10.7,10.8-10.7c5.8,0.1,10.2,4.2,10.5,10.5
		c0.3,7.1,0.3,14.3,0,21.5c-0.3,6.5-5,10.6-11.1,10.4c-5.7-0.2-9.9-4.4-10.3-10.7C341.1,134.9,341.2,131.4,341.2,127.9z"/>
</g>
<g>
	<path class="st2" d="M297.3,20.5c2.5,0,4.4,0,4.4,0s0.2,0,0.6-0.1C300.6,20.5,299,20.5,297.3,20.5z"/>
	<path class="st2" d="M316.3-0.5c-5.4-0.3-10.7-0.4-16.1-0.3l0,0c-1.4-0.1-2.3,0-2.3,0c-0.5,0-250.6,0.1-271.5,0.1
		c-0.7,0-1.4,0.3-2,0.8c-0.9,0.8-2.2,0.7-3.2,1c-9.4,3.6-15.8,10-19.3,19.3c-0.5,1.3-0.2,3-1.9,3.8v397.9c1.5,0.4,1.2,1.9,1.5,2.8
		C6.8,439.1,18,447.1,33,447.2c9.7,0.1,9.7,0.1,9.7,9.8c0,13.3,0.3,26.6-0.1,39.8c-0.2,7.4,2.4,12.6,10.2,15.7c0.5,0,1.2,0,1.7,0
		c7.8-3.6,9.8-9.3,9.6-16.8c-0.4-14.8,0-29.6-0.2-44.4c0-3.2,0.7-4.1,4.1-4.1c54.1,0.1,108.2,0.1,162.3,0c3.9,0,4.6,1.2,4.5,4.8
		c-0.2,15,0.2,30-0.2,44.9c-0.2,6.5,1.8,11.3,7.6,14.5c1.6,0.1,3,0.2,4.6,0.3c7-2.6,9.4-7.4,9.2-14.4c-0.3-15.3,0-30.6-0.2-46
		c0-2,0.2-3.3,1.2-3.9c2,0,3.9,0,5.9,0v0.1c1.8,0,3.7,0,5.5,0c2,0,4,0.1,6-0.1c5.7-0.4,9.7-4.4,9.9-9.9c0.2-5.7-3.6-10.8-9.2-11.1
		c-2.8-0.2-5.6-0.2-8.3-0.3c-0.8-0.1-1.7-0.1-2.6-0.1c-24.5,0-49,0-73.5,0c-5.3,0-10.7-0.2-16,0.1c-3.4,0.2-4.2-1-4.1-4.2
		c0.2-14.2,0.1-28.3,0.1-42.5c0-117.8,0-235.5-0.1-353.3c0-4.1,0.6-5.6,5.3-5.6c35.9,0.2,69.9-0.8,105.9,0.1c0.1,0,9.7,0,15.5,0
		c1.7,0,3.3,0,5-0.1c0.6,0,1.2,0,1.8,0v0.1c1.8,0,3.7,0,5.5,0c2,0,4,0.1,6-0.1c5.7-0.4,9.7-4.5,9.9-9.9
		C325.7,4.8,321.9-0.2,316.3-0.5z M149.2,223.7c0,65.6,0,131.2,0.1,196.9c0,4.3-0.9,5.5-5.4,5.5c-36.1-0.2-72.3-0.1-108.4-0.1
		c-10.5,0-14.2-3.7-14.2-14c0-125.9,0-251.8,0-377.7c0-9.7,4-13.6,13.6-13.6c36.3,0,72.6,0.1,108.9-0.1c4.3,0,5.5,0.9,5.5,5.4
		C149.2,91.8,149.2,157.8,149.2,223.7z"/>
	<path class="st2" d="M213.1,223.5c0,3.7,0.2,7.3,0,11c-0.3,5.8-4.3,9.7-9.8,10c-5.7,0.3-10.8-3.5-11.1-9.2c-0.4-8-0.4-16,0-24
		c0.3-5.7,5.3-9.5,11.1-9.2c5.5,0.3,9.6,4.2,9.9,9.9C213.3,215.8,213.1,219.6,213.1,223.5z"/>
	<path class="st2" d="M106.8,223c0-3.7-0.2-7.3,0-11c0.3-5.7,4.4-9.7,9.8-10c5.7-0.3,10.8,3.5,11.1,9.2c0.4,8,0.4,16,0,24
		c-0.3,5.7-5.4,9.5-11.1,9.2c-5.5-0.2-9.5-4.2-9.9-9.9c-0.2-2-0.1-4-0.1-6C106.7,226.7,106.7,224.9,106.8,223
		C106.7,223,106.8,223,106.8,223z"/>
</g>
</svg>
