<?xml version="1.0" encoding="utf-8"?>
<!-- Generator: Adobe Illustrator 28.0.0, SVG Export Plug-In . SVG Version: 6.00 Build 0)  -->
<svg version="1.1" id="Layer_2_00000077310478485900805390000015030428482472015764_"
	 xmlns="http://www.w3.org/2000/svg" xmlns:xlink="http://www.w3.org/1999/xlink" x="0px" y="0px" viewBox="0 0 120.1 127.9"
	 style="enable-background:new 0 0 120.1 127.9;" xml:space="preserve">
<style type="text/css">
	.st0{fill:#CFCACA;}
	.st1{fill:#ED947C;}
</style>
<g id="Layer_1-2">
	<g>
		<path class="st0" d="M119.9,92.9c-6.8-3.1-8.8-3.1-16-0.1v-2.2c0-17,0-34-0.1-51c0-2,0.6-2.5,2.5-2.4c3.9,0.2,7.8,0.1,11.7,0
			c1.3,0,1.9,0.2,1.9,1.7C119.9,56.9,119.9,74.8,119.9,92.9L119.9,92.9z"/>
		<path class="st0" d="M111.3,32c-2.1-0.2-5.6,1.1-7-0.5c-1.3-1.5-0.4-4.9-0.4-7.5c0-1.3-0.1-2.7,0.2-4c0.6-2.7,2.7-4.1,6-4.1
			c3.7,0.1,8.4-1.1,9.5,4c0.8,3.6,0.3,7.4,0.3,11.2c0,1.1-0.9,0.8-1.4,0.8C116.2,32,114,32,111.3,32L111.3,32z"/>
		<path class="st1" d="M111.9,111.9c-2.6-4.4-5-8.3-7.4-12.3c-0.5-0.8-0.3-1.2,0.5-1.7c3.8-2.6,10.3-2.6,14,0c0.8,0.5,0.9,1,0.4,1.7
			C116.9,103.6,114.6,107.6,111.9,111.9z"/>
		<path class="st0" d="M95.9,6.8c0-5-1.8-6.8-6.8-6.8c-27.5,0-55,0-82.4,0C1.8,0,0,1.8,0,6.8C0,44.9,0,83,0,121.1
			c0,5,1.8,6.8,6.8,6.8c27.5,0,54.9,0,82.4,0c5,0,6.8-1.8,6.8-6.8c0-19.1,0-38.1,0-57.2S96,25.8,95.9,6.8z M21.4,110.5
			c0,3.3-0.7,4.1-4.1,4.1c-0.4,0-0.8,0-1.2,0c-0.8,0-1.7,0.1-2.5,0c-2.3-0.2-2.9-1.1-2.9-4.3c0-5.3,0.4-6.1,2.9-6.3c0.5,0,1,0,1.5,0
			C19.3,103.9,21.4,106.1,21.4,110.5L21.4,110.5z M19.4,98.4c-1,0.4-2.3,0.2-3.5,0.2c0-0.1,0-0.1,0-0.1c-1.1,0-2.2,0.3-3.2-0.1
			c-3.1-1-1.9-3.8-2.1-6c-0.2-1.8-0.2-4,2.2-4.4c2.1-0.3,4.3-0.3,6.5,0c1.9,0.3,2.3,2.1,2.1,3.7C21,94.1,22.6,97,19.4,98.4
			L19.4,98.4z M20.9,81.3c-0.2,0.7-1,1.1-1.8,1.2c-0.6,0-1.2,0.1-1.7,0.1c-4.5,0-6.8-2.2-6.7-6.7c0.1-3.1,0.8-3.9,4.1-3.9
			c0.5,0,1,0,1.7,0c1.5,0.2,3.7-0.7,4.5,1.3C21.9,75.9,21.7,78.7,20.9,81.3z M19.6,16c-1.1,0.2-2.3,0.1-3.5,0
			c-1.6-0.1-2.6-0.9-2.7-2.7c0-1.6,1-2.5,2.5-2.6c2.7-0.1,5.5-0.1,8.2,0c1.5,0.1,2.2,1.2,2.7,2.6c2,5.4,2.1,5.4,7.8,5.4
			c10.1,0,20.2,0,30.2,0c6.2,0,8.3,3.1,6.1,8.8c-1.4,3.6-2.7,7.1-4.1,10.7c-1.4,3.6-2.8,4.5-6.6,4.5c-4.2,0-8.3,0-12.5,0
			c-4.2,0-8.5,0-12.7,0c-3.1,0-4.7-1.2-5.7-4.2C27.2,31.8,25,25.2,23,18.5C22.4,16.6,21.7,15.6,19.6,16L19.6,16z M66.6,53.4
			c0,3-2.3,5.2-5.2,5.2c-3,0-5.4-2.4-5.3-5.4c0.1-2.9,2.4-5.2,5.3-5.2C64.3,48,66.6,50.4,66.6,53.4z M42.6,53.3c0,3-2.2,5.2-5.2,5.3
			c-3,0-5.4-2.3-5.4-5.3c0-2.9,2.3-5.2,5.2-5.3C40.2,47.9,42.6,50.3,42.6,53.3L42.6,53.3z M85.3,109.4c-0.3,2.2-1.9,2.6-3.8,2.6
			c-8.5-0.1-17,0-25.5,0s-17,0-25.5,0c-1.9,0-3.6-0.3-3.8-2.6c-0.2-1.8,1.2-2.8,3.8-2.8c17,0,33.9,0,50.9,0
			C84,106.6,85.5,107.6,85.3,109.4z M26.7,93.2c0-1.9,1.5-2.6,3.3-2.6c0.7,0,1.3,0,2,0c8.9,0,17.8,0,26.7,0c7.3,0,14.6,0,22,0
			c0.6,0,1.2,0,1.8,0c1.7,0.1,2.9,1,2.8,2.8C85.2,95.1,84,96,82.2,96c-5.7,0-11.5,0-17.2,0c-3,0-6,0-9,0c-8.6,0-17.3,0-26,0
			C28.1,96,26.7,95.2,26.7,93.2L26.7,93.2z M85.1,78.1c-0.6,1.7-1.9,1.8-3.4,1.8c-8.6,0-17.1,0-25.7,0c-8.5,0-17,0-25.5,0
			c-2.6,0-4.1-1-3.9-2.8c0.3-2.2,1.9-2.6,3.8-2.6c17,0,33.9,0,50.9,0C84.4,74.6,85.8,76,85.1,78.1L85.1,78.1z"/>
	</g>
</g>
</svg>
