<?xml version="1.0" encoding="UTF-8"?>
<svg id="Layer_2" data-name="Layer 2" xmlns="http://www.w3.org/2000/svg" viewBox="0 0 120.07 127.92">
  <defs>
    <style>
      .cls-1 {
        fill: #cfcaca;
      }

      .cls-1, .cls-2 {
        stroke-width: 0px;
      }

      .cls-2 {
        fill: #ed947c;
      }
    </style>
  </defs>
  <g id="Layer_1-2" data-name="Layer 1">
    <g>
      <path class="cls-1" d="m119.94,92.95c-6.8-3.12-8.76-3.12-15.99-.05v-2.23c0-16.99.04-33.97-.05-50.96-.01-2,.55-2.48,2.46-2.4,3.91.15,7.83.09,11.74.02,1.3-.02,1.89.15,1.88,1.7-.06,17.9-.04,35.8-.04,53.93Z"/>
      <path class="cls-1" d="m111.32,31.98c-2.13-.21-5.62,1.13-6.96-.47-1.28-1.53-.39-4.9-.41-7.46,0-1.33-.1-2.69.16-3.97.55-2.67,2.73-4.12,6.03-4.07,3.71.06,8.36-1.13,9.48,4.01.79,3.58.26,7.44.3,11.18.01,1.11-.87.77-1.45.78-2.25.03-4.49.01-7.16.01Z"/>
      <path class="cls-2" d="m111.94,111.89c-2.63-4.36-5-8.34-7.43-12.28-.51-.84-.29-1.2.47-1.72,3.82-2.57,10.26-2.57,13.97.01.78.54.89.96.41,1.74-2.42,3.95-4.8,7.92-7.42,12.25Z"/>
      <path class="cls-1" d="m95.95,6.77c0-4.97-1.79-6.77-6.75-6.77C61.72,0,34.24,0,6.77,0,1.79,0,0,1.79,0,6.76,0,44.89,0,83.02,0,121.14c0,4.97,1.79,6.77,6.76,6.77,27.48,0,54.95,0,82.43,0,4.97,0,6.76-1.79,6.76-6.76,0-19.06,0-38.13,0-57.19,0-19.06,0-38.13,0-57.19ZM21.37,110.48c-.02,3.35-.72,4.05-4.11,4.07-.42,0-.83,0-1.25,0-.83,0-1.67.05-2.5-.01-2.29-.16-2.88-1.06-2.9-4.27-.02-5.26.36-6.12,2.86-6.33.5-.04,1,0,1.5,0q6.44,0,6.39,6.55Zm-1.96-12.09c-1.01.42-2.3.17-3.46.22,0-.05,0-.09,0-.14-1.08,0-2.25.27-3.22-.05-3.15-1.03-1.89-3.81-2.08-5.96-.16-1.84-.23-4,2.17-4.39,2.1-.34,4.34-.3,6.46,0,1.92.29,2.28,2.06,2.07,3.72-.3,2.29,1.26,5.25-1.93,6.58Zm1.44-17.04c-.23.7-.97,1.12-1.79,1.17-.58.03-1.16.05-1.74.06q-6.8.06-6.7-6.72c.05-3.14.82-3.88,4.05-3.9.5,0,1,0,1.66,0,1.5.16,3.73-.69,4.52,1.35,1,2.57.86,5.38,0,8.04Zm-1.28-65.39c-1.13.19-2.33.08-3.49.02-1.65-.09-2.65-.95-2.67-2.67-.01-1.61.98-2.54,2.46-2.61,2.74-.13,5.5-.11,8.24-.02,1.54.05,2.2,1.23,2.71,2.56,2.05,5.38,2.07,5.38,7.83,5.38,10.08,0,20.15,0,30.23,0,6.18,0,8.34,3.1,6.14,8.8-1.37,3.56-2.73,7.13-4.12,10.68-1.4,3.56-2.76,4.49-6.56,4.5-4.16.01-8.33,0-12.49,0-4.25,0-8.5.03-12.74-.01-3.15-.03-4.67-1.16-5.68-4.21-2.19-6.62-4.39-13.23-6.44-19.89-.57-1.87-1.29-2.88-3.41-2.52Zm47.01,37.43c-.04,2.95-2.29,5.17-5.25,5.18-3.02,0-5.4-2.39-5.35-5.38.06-2.86,2.44-5.21,5.3-5.22,2.99-.01,5.34,2.39,5.3,5.42Zm-23.99-.08c0,2.96-2.22,5.22-5.16,5.26-3.03.04-5.44-2.3-5.43-5.29,0-2.86,2.35-5.25,5.21-5.31,2.99-.06,5.39,2.31,5.39,5.33Zm42.68,56.08c-.28,2.25-1.9,2.57-3.84,2.56-8.48-.05-16.97-.02-25.45-.02s-16.97-.03-25.45.02c-1.93,0-3.57-.3-3.84-2.56-.21-1.78,1.25-2.82,3.84-2.83,16.97-.01,33.93-.01,50.9,0,2.58,0,4.06,1.06,3.84,2.83Zm-58.56-16.21c.04-1.91,1.48-2.63,3.29-2.61.67,0,1.33,0,2,0,8.9,0,17.8,0,26.7,0,7.32,0,14.64,0,21.96,0,.58,0,1.17-.03,1.75.01,1.73.13,2.93,1.02,2.85,2.8-.08,1.75-1.27,2.58-3.05,2.57-5.74-.02-11.48,0-17.22,0-2.99,0-5.99,0-8.98,0-8.65,0-17.3-.02-25.95.02-1.97,0-3.38-.74-3.35-2.78Zm58.4-15.07c-.57,1.65-1.9,1.85-3.41,1.85-8.57-.02-17.13-.01-25.7-.01-8.48,0-16.97,0-25.45,0-2.59,0-4.07-1.01-3.87-2.77.26-2.24,1.9-2.62,3.83-2.62,16.97.02,33.93,0,50.9.02,2.96,0,4.42,1.43,3.69,3.53Z"/>
    </g>
  </g>
</svg>