<?xml version="1.0" encoding="UTF-8"?>
<svg id="Layer_2" data-name="Layer 2" xmlns="http://www.w3.org/2000/svg" viewBox="0 0 159.94 119.99">
  <defs>
    <style>
      .cls-1 {
        fill: #f2f2f2;
        stroke-width: 0px;
      }
    </style>
  </defs>
  <g id="Layer_2-2" data-name="Layer 2">
    <g>
      <path class="cls-1" d="m91.25,67.93c-12.07,0-24.15,0-36.22,0-4.18,0-5.05-.91-5.08-5.16-.01-2.16-.03-4.33.01-6.49.07-3.38,1.13-4.41,4.56-4.41,24.23,0,48.46,0,72.69-.02,1.04,0,2.59.53,3.01-.36.58-1.23-1.03-1.88-1.8-2.64-10.34-10.14-20.71-20.24-31.1-30.33-3.13-3.04-3.21-4.08-.25-7.18,1.32-1.39,2.69-2.73,4.03-4.09,3.26-3.29,4.35-3.31,7.58-.1,13.26,13.22,26.51,26.45,39.77,39.68,3.12,3.11,6.24,6.23,9.35,9.36,2.82,2.83,2.85,4.09.1,6.85-16.43,16.49-32.87,32.98-49.32,49.46-3.22,3.23-4.36,3.2-7.59-.06-1.52-1.54-3.05-3.07-4.51-4.66-2.17-2.35-2.19-3.46.09-5.7,6.82-6.71,13.69-13.37,20.54-20.05,4.11-4.01,8.25-7.99,12.34-12.02.48-.47,1.47-.82,1.1-1.68-.3-.7-1.19-.4-1.83-.4-12.49,0-24.98,0-37.47,0,0,0,0,.02,0,.03Z"/>
      <path class="cls-1" d="m.01,59.54C.01,49.97.06,40.39,0,30.82-.06,20.55,3.94,12.2,11.97,5.95,17.3,1.8,23.56-.03,30.35,0c8.33.03,16.65,0,24.98.01,3.63,0,4.59,1,4.61,4.59.01,1.83,0,3.66,0,5.49-.02,3.79-1.05,4.85-4.93,4.86-8.33.03-16.65,0-24.98.02-6.15.02-10.6,2.87-13.48,8.25-1.07,2.01-1.56,4.17-1.56,6.47.02,19.9-.03,39.79.03,59.69.03,8.97,6.4,15.32,15.47,15.43,8.16.1,16.32.02,24.48.02,4,0,4.97,1,4.98,5.03,0,2.08.01,4.16,0,6.24-.02,2.34-1.35,3.65-3.56,3.65-9.99,0-20.01.64-29.96-.23C12.35,118.3.13,106.01.04,90.26c-.06-10.24-.01-20.48-.01-30.72H.01Z"/>
    </g>
  </g>
</svg>